<?xml version="1.0" encoding="utf-8"?>
<!-- Generator: Adobe Illustrator 25.0.0, SVG Export Plug-In . SVG Version: 6.00 Build 0)  -->
<svg version="1.1" id="图层_1" xmlns:figma="http://www.figma.com/figma/ns"
	 xmlns="http://www.w3.org/2000/svg" xmlns:xlink="http://www.w3.org/1999/xlink" x="0px" y="0px" viewBox="0 0 59.5 27.2"
	 style="enable-background:new 0 0 59.5 27.2;" xml:space="preserve">
<style type="text/css">
	.st0{fill:#FF4400;}
</style>
<g transform="translate(-1470)" figma:type="canvas">
	<g transform="translate(1470)" figma:type="vector">
		<g>
			<path class="st0" d="M9.9,17.8H6.3V27H3.6v-9.2H0v-1.9h9.9V17.8z"/>
			<path class="st0" d="M21.3,27h-2.9l-0.9-2.5h-4.6L11.9,27H9l4.6-11.1h3.2L21.3,27z M16.8,22.6l-1.4-3.8c-0.1-0.2-0.2-0.6-0.2-1
				h-0.1c0,0.3-0.1,0.6-0.2,0.9l-1.4,3.9H16.8z"/>
			<path class="st0" d="M34.1,27h-2.7L26,19.8c-0.3-0.4-0.5-0.7-0.6-0.9h0c0,0.4,0.1,1,0.1,1.8V27h-2.5V15.9h2.9l5.1,7
				c0.3,0.5,0.6,0.8,0.6,0.9h0c-0.1-0.3-0.1-0.8-0.1-1.5v-6.3h2.5V27z"/>
			<path class="st0" d="M47.3,27h-3.4l-3.8-4.9c-0.1-0.1-0.2-0.3-0.3-0.6h0V27H37V15.9h2.7v5.2h0c0.1-0.2,0.2-0.4,0.4-0.6l3.6-4.6
				h3.2l-4.5,5.3L47.3,27z"/>
			<path class="st0" d="M47.2,21.6c0-1.7,0.6-3.2,1.7-4.2c1.2-1.1,2.7-1.6,4.6-1.6c1.8,0,3.2,0.5,4.3,1.6c1.1,1.1,1.6,2.4,1.6,4.1
				c0,1.7-0.6,3.1-1.7,4.2c-1.1,1.1-2.6,1.6-4.5,1.6c-1.8,0-3.3-0.5-4.4-1.6C47.8,24.6,47.2,23.2,47.2,21.6z M50,21.5
				c0,1.1,0.3,2,0.9,2.6c0.6,0.7,1.4,1,2.4,1c1.1,0,1.9-0.3,2.5-1c0.6-0.7,0.9-1.5,0.9-2.6c0-1.2-0.3-2.1-0.9-2.7
				c-0.6-0.7-1.4-1-2.4-1c-1.1,0-1.9,0.3-2.5,1C50.3,19.5,50,20.4,50,21.5z"/>
		</g>
	</g>
</g>
<g>
	<path class="st0" d="M1.5,4.7C2.4,5.3,3.3,6,4,6.7L2.7,8.2C2,7.5,1.2,6.8,0.2,6L1.5,4.7z M2.1,8.8C2.7,9.1,3.3,9.3,4,9.5
		c-0.7,2.1-1.3,4-1.7,5.5c-0.7-0.3-1.3-0.5-2-0.7C0.9,12.9,1.5,11,2.1,8.8z M1.6,0.8C2.5,1.4,3.4,2,4.3,2.7L3,4.2
		c-0.7-0.6-1.6-1.3-2.6-2L1.6,0.8z M14.4,9.8H11c1,1.2,2.2,2,3.8,2.6c-0.4,0.6-0.7,1.2-1.1,1.9c-1.4-0.8-2.5-1.8-3.3-3.1v3.9H8.3v-4
		c-0.9,1.2-2,2.4-3.5,3.4c-0.3-0.6-0.7-1.2-1.1-1.7c1.4-0.8,2.6-1.8,3.7-2.9H4.3V8.1h4V6.2h1.9v1.9h4.1V9.8z M8.9,5.1
		C7.7,6.1,6.6,6.9,5.6,7.6L4.4,6.2c1.1-0.7,2.2-1.4,3.2-2.3L8.9,5.1z M4.5,4.7V1.5h9.6v3.2h-1.9V3.2H6.3v1.5H4.5z M9.7,5.1l1.2-1.2
		c1.2,0.8,2.3,1.6,3.2,2.3l-1.2,1.4C11.8,6.7,10.8,5.9,9.7,5.1z"/>
	<path class="st0" d="M15.5,12.8l-0.5-2.1c0.5-0.1,1.1-0.2,1.6-0.3V5.9h-1.4V4h1.4V0.9h1.9V4H20v1.9h-1.4v4c0.5-0.1,0.9-0.3,1.4-0.4
		c0,0.5,0,1.1,0.1,1.8c0.3-0.9,0.5-2,0.5-3.1V1h1.9v7.3c0,2.9-0.8,5.2-2.3,6.9c-0.7-0.6-1.3-1-1.8-1.3c0.7-0.7,1.2-1.5,1.5-2.4
		C18.4,12,17,12.4,15.5,12.8z M23.8,1.6h1.9v12.6h-1.9V1.6z M27,1H29v14H27V1z"/>
	<path class="st0" d="M35.5,5.1h2.6c0.1-0.2,0.2-0.4,0.2-0.6h-2.5V3h0.6c-0.3-0.5-0.5-0.9-0.8-1.3l1.6-0.8c0.3,0.4,0.7,1,1.1,1.6
		l-1,0.5h1.3c0.1-0.7,0.1-1.4,0.1-2.3h1.8c0,0.8-0.1,1.6-0.1,2.3h1.2L41,2.6c0.4-0.6,0.8-1.2,1.1-1.7l1.6,0.8
		c-0.3,0.4-0.6,0.9-0.9,1.3h1v1.4h-3.7C40.1,4.7,40,4.9,40,5.1h4.2v1.4H42c0.6,0.6,1.5,1.1,2.5,1.3c-0.4,0.6-0.7,1.1-1,1.6
		c-0.5-0.2-1-0.4-1.4-0.7L42,9.9h1.8l-0.2,3.4c0,0.6-0.2,1-0.5,1.3c-0.3,0.2-0.7,0.4-1.1,0.4c-0.4,0-1.2,0-2.3,0.1
		c-0.1-0.4-0.2-0.9-0.5-1.6c0.7,0,1.4,0,2,0c0.2,0,0.4-0.1,0.6-0.2c0.1-0.1,0.2-0.3,0.2-0.6c0-0.3,0-0.8,0.1-1.5h-5.8l0.5-2.1h1.6
		l-0.2,0.8h2.2l0.2-1.2h-3.4c-0.4,0.3-0.8,0.6-1.2,0.8c-0.2-0.3-0.4-0.6-0.7-1.1v4.7c0,0.5-0.1,0.9-0.3,1.2s-1,0.5-2.3,0.6
		c-0.1-0.5-0.2-1.1-0.4-1.8c-0.2,0.7-0.5,1.4-0.9,2.1c-0.4-0.6-0.8-1.1-1.3-1.7c0.3-0.8,0.6-1.7,0.7-2.6c0.1-1,0.2-2.5,0.2-4.6V1.5
		h4.3V8c0.8-0.4,1.4-0.9,2-1.5h-1.6V5.1z M32.4,10.6c0,1-0.1,1.8-0.3,2.4c0.3,0,0.5,0.1,0.8,0.1c0.4,0,0.6-0.3,0.6-0.8v-1.6H32.4z
		 M32.5,8.8h1v-2h-1C32.5,7.6,32.5,8.2,32.5,8.8z M33.5,3.3h-1v1.9h1V3.3z M35.5,11.7h6V13h-6V11.7z M40.1,6.5h-0.8
		c-0.2,0.3-0.5,0.7-0.7,1h2.3C40.5,7.2,40.3,6.8,40.1,6.5z"/>
	<path class="st0" d="M44.8,9.1c0.7-1.2,1.3-2.4,1.7-3.7h-1.6V3.4h1.8V0.7h1.8v2.7h1.6v1.9h-1.6v1.3c0.9,0.6,1.6,1,2.1,1.5l-1.1,1.7
		c-0.4-0.3-0.7-0.7-1.1-1v6.3h-1.8V8.9c-0.4,1-0.9,1.9-1.4,2.8C45.2,11,45,10.2,44.8,9.1z M50.3,1.5h8.9v1.8h-0.9V12
		c0,1.8-0.7,2.7-2,2.9c-0.5,0.1-1.5,0.1-2.9,0.1c-0.1-0.7-0.3-1.3-0.4-2c0.8,0.1,1.5,0.1,2,0.1c0.9,0,1.3-0.4,1.3-1.4V3.4h-6.1V1.5z
		 M55.5,4.9v6.4h-3.1v0.8h-1.7V4.9H55.5z M52.4,6.6v3h1.3v-3H52.4z"/>
</g>
</svg>
