<?xml version="1.0" encoding="utf-8"?>
<!-- Generator: Adobe Illustrator 25.0.0, SVG Export Plug-In . SVG Version: 6.00 Build 0)  -->
<svg version="1.1" id="图层_1" xmlns:figma="http://www.figma.com/figma/ns"
	 xmlns="http://www.w3.org/2000/svg" xmlns:xlink="http://www.w3.org/1999/xlink" x="0px" y="0px" viewBox="0 0 150.9 29.1"
	 style="enable-background:new 0 0 150.9 29.1;" xml:space="preserve">
<style type="text/css">
	.st0{fill:#FF4400;}
</style>
<g transform="translate(-1470)" figma:type="canvas">
	<g transform="translate(1470)" figma:type="vector">
		<g>
			<path class="st0" d="M25,5.3h-9.2v23.2H9V5.3H0V0.4h25V5.3z"/>
			<path class="st0" d="M53.9,28.6h-7.4L44,22.1H32.5l-2.3,6.5h-7.4L34.4,0.4h8L53.9,28.6z M42.5,17.5l-3.6-9.7
				c-0.2-0.6-0.3-1.4-0.5-2.4h-0.2C38.1,6.2,38,7,37.6,7.8L34,17.7h8.5C42.5,17.7,42.5,17.5,42.5,17.5z"/>
			<path class="st0" d="M86.4,28.6h-7L65.8,10.4c-0.7-0.9-1.2-1.7-1.5-2.3h-0.1c0.1,0.9,0.2,2.4,0.2,4.5v16H58V0.4h7.4l13,17.7
				c0.8,1.2,1.4,2,1.6,2.2h0.1c-0.1-0.7-0.1-2-0.1-3.9v-16h6.5L86.4,28.6C86.5,28.6,86.4,28.6,86.4,28.6z"/>
			<path class="st0" d="M119.9,28.6h-8.6l-9.6-12.3c-0.2-0.3-0.6-0.8-0.8-1.5h-0.1v13.8H94V0.4h6.8v13.3h0.1c0.3-0.6,0.6-1,0.9-1.5
				L111,0.4h8.1l-11.6,13.4L119.9,28.6z"/>
			<path class="st0" d="M119.7,14.9c0-4.4,1.5-8,4.4-10.8S131,0,135.7,0c4.5,0,8.2,1.4,11,4.1s4.2,6.1,4.2,10.3
				c0,4.4-1.4,8-4.3,10.7c-2.9,2.8-6.7,4.1-11.4,4.1c-4.6,0-8.3-1.3-11.1-3.9S119.7,19.1,119.7,14.9z M126.9,14.6
				c0,2.8,0.7,5,2.2,6.7c1.5,1.7,3.6,2.6,6.1,2.6c2.7,0,4.8-0.8,6.3-2.6c1.5-1.7,2.2-3.9,2.2-6.7c0-2.9-0.7-5.2-2.2-7
				C140.1,5.9,138,5,135.4,5c-2.7,0-4.8,0.9-6.3,2.7C127.6,9.5,126.9,11.8,126.9,14.6z"/>
		</g>
	</g>
</g>
</svg>
